<svg xmlns="http://www.w3.org/2000/svg" xmlns:xlink="http://www.w3.org/1999/xlink" width="166.781" height="272.607" viewBox="0 0 166.781 272.607">
  <defs>
    <clipPath id="clip-path">
      <rect id="Rectangle_298" data-name="Rectangle 298" width="166.781" height="272.607" fill="#6ccccf"/>
    </clipPath>
  </defs>
  <g id="dot-left" opacity="0.5">
    <g id="Group_19" data-name="Group 19" clip-path="url(#clip-path)">
      <path id="Path_688" data-name="Path 688" d="M4.989,2.495A2.494,2.494,0,1,1,2.494,0,2.495,2.495,0,0,1,4.989,2.495" fill="#6ccccf"/>
      <path id="Path_689" data-name="Path 689" d="M31.955,2.495A2.495,2.495,0,1,1,29.459,0a2.5,2.5,0,0,1,2.5,2.495" fill="#6ccccf"/>
      <path id="Path_690" data-name="Path 690" d="M58.92,2.495A2.494,2.494,0,1,1,56.425,0,2.495,2.495,0,0,1,58.92,2.495" fill="#6ccccf"/>
      <path id="Path_691" data-name="Path 691" d="M85.885,2.495A2.494,2.494,0,1,1,83.39,0a2.495,2.495,0,0,1,2.5,2.495" fill="#6ccccf"/>
      <path id="Path_692" data-name="Path 692" d="M112.85,2.495A2.494,2.494,0,1,1,110.355,0a2.495,2.495,0,0,1,2.495,2.495" fill="#6ccccf"/>
      <path id="Path_693" data-name="Path 693" d="M139.815,2.495A2.494,2.494,0,1,1,137.32,0a2.495,2.495,0,0,1,2.495,2.495" fill="#6ccccf"/>
      <path id="Path_694" data-name="Path 694" d="M166.781,2.495A2.494,2.494,0,1,1,164.286,0a2.495,2.495,0,0,1,2.5,2.495" fill="#6ccccf"/>
      <path id="Path_695" data-name="Path 695" d="M4.989,26.823a2.494,2.494,0,1,1-2.495-2.5,2.495,2.495,0,0,1,2.495,2.5" fill="#6ccccf"/>
      <path id="Path_696" data-name="Path 696" d="M31.955,26.823a2.495,2.495,0,1,1-2.5-2.5,2.5,2.5,0,0,1,2.5,2.5" fill="#6ccccf"/>
      <path id="Path_697" data-name="Path 697" d="M58.92,26.823a2.494,2.494,0,1,1-2.495-2.5,2.495,2.495,0,0,1,2.495,2.5" fill="#6ccccf"/>
      <path id="Path_698" data-name="Path 698" d="M85.885,26.823a2.494,2.494,0,1,1-2.5-2.5,2.495,2.495,0,0,1,2.5,2.5" fill="#6ccccf"/>
      <path id="Path_699" data-name="Path 699" d="M112.85,26.823a2.494,2.494,0,1,1-2.495-2.5,2.495,2.495,0,0,1,2.495,2.5" fill="#6ccccf"/>
      <path id="Path_700" data-name="Path 700" d="M139.815,26.823a2.494,2.494,0,1,1-2.495-2.5,2.495,2.495,0,0,1,2.495,2.5" fill="#6ccccf"/>
      <path id="Path_701" data-name="Path 701" d="M166.781,26.823a2.494,2.494,0,1,1-2.5-2.5,2.495,2.495,0,0,1,2.5,2.5" fill="#6ccccf"/>
      <path id="Path_702" data-name="Path 702" d="M4.989,51.152a2.494,2.494,0,1,1-2.495-2.495,2.495,2.495,0,0,1,2.495,2.495" fill="#6ccccf"/>
      <path id="Path_703" data-name="Path 703" d="M31.955,51.152a2.495,2.495,0,1,1-2.5-2.495,2.5,2.5,0,0,1,2.5,2.495" fill="#6ccccf"/>
      <path id="Path_704" data-name="Path 704" d="M58.92,51.152a2.494,2.494,0,1,1-2.495-2.495,2.495,2.495,0,0,1,2.495,2.495" fill="#6ccccf"/>
      <path id="Path_705" data-name="Path 705" d="M85.885,51.152a2.494,2.494,0,1,1-2.5-2.495,2.495,2.495,0,0,1,2.5,2.495" fill="#6ccccf"/>
      <path id="Path_706" data-name="Path 706" d="M112.85,51.152a2.494,2.494,0,1,1-2.495-2.495,2.495,2.495,0,0,1,2.495,2.495" fill="#6ccccf"/>
      <path id="Path_707" data-name="Path 707" d="M139.815,51.152a2.494,2.494,0,1,1-2.495-2.495,2.495,2.495,0,0,1,2.495,2.495" fill="#6ccccf"/>
      <path id="Path_708" data-name="Path 708" d="M166.781,51.152a2.494,2.494,0,1,1-2.5-2.495,2.495,2.495,0,0,1,2.5,2.495" fill="#6ccccf"/>
      <path id="Path_709" data-name="Path 709" d="M4.989,75.481a2.494,2.494,0,1,1-2.495-2.5,2.495,2.495,0,0,1,2.495,2.5" fill="#6ccccf"/>
      <path id="Path_710" data-name="Path 710" d="M31.955,75.481a2.495,2.495,0,1,1-2.5-2.5,2.5,2.5,0,0,1,2.5,2.5" fill="#6ccccf"/>
      <path id="Path_711" data-name="Path 711" d="M58.92,75.481a2.494,2.494,0,1,1-2.495-2.5,2.495,2.495,0,0,1,2.495,2.5" fill="#6ccccf"/>
      <path id="Path_712" data-name="Path 712" d="M85.885,75.481a2.494,2.494,0,1,1-2.5-2.5,2.495,2.495,0,0,1,2.5,2.5" fill="#6ccccf"/>
      <path id="Path_713" data-name="Path 713" d="M112.85,75.481a2.494,2.494,0,1,1-2.495-2.5,2.495,2.495,0,0,1,2.495,2.5" fill="#6ccccf"/>
      <path id="Path_714" data-name="Path 714" d="M139.815,75.481a2.494,2.494,0,1,1-2.495-2.5,2.495,2.495,0,0,1,2.495,2.5" fill="#6ccccf"/>
      <path id="Path_715" data-name="Path 715" d="M166.781,75.481a2.494,2.494,0,1,1-2.5-2.5,2.495,2.495,0,0,1,2.5,2.5" fill="#6ccccf"/>
      <path id="Path_716" data-name="Path 716" d="M4.989,99.81a2.494,2.494,0,1,1-2.495-2.495A2.495,2.495,0,0,1,4.989,99.81" fill="#6ccccf"/>
      <path id="Path_717" data-name="Path 717" d="M31.955,99.81a2.495,2.495,0,1,1-2.5-2.495,2.5,2.5,0,0,1,2.5,2.495" fill="#6ccccf"/>
      <path id="Path_718" data-name="Path 718" d="M58.92,99.81a2.494,2.494,0,1,1-2.495-2.495A2.495,2.495,0,0,1,58.92,99.81" fill="#6ccccf"/>
      <path id="Path_719" data-name="Path 719" d="M85.885,99.81a2.494,2.494,0,1,1-2.5-2.495,2.495,2.495,0,0,1,2.5,2.495" fill="#6ccccf"/>
      <path id="Path_720" data-name="Path 720" d="M112.85,99.81a2.494,2.494,0,1,1-2.495-2.495,2.495,2.495,0,0,1,2.495,2.495" fill="#6ccccf"/>
      <path id="Path_721" data-name="Path 721" d="M139.815,99.81a2.494,2.494,0,1,1-2.495-2.495,2.495,2.495,0,0,1,2.495,2.495" fill="#6ccccf"/>
      <path id="Path_722" data-name="Path 722" d="M166.781,99.81a2.494,2.494,0,1,1-2.5-2.495,2.495,2.495,0,0,1,2.5,2.495" fill="#6ccccf"/>
      <path id="Path_723" data-name="Path 723" d="M4.989,124.139a2.494,2.494,0,1,1-2.495-2.5,2.495,2.495,0,0,1,2.495,2.5" fill="#6ccccf"/>
      <path id="Path_724" data-name="Path 724" d="M31.955,124.139a2.495,2.495,0,1,1-2.5-2.5,2.5,2.5,0,0,1,2.5,2.5" fill="#6ccccf"/>
      <path id="Path_725" data-name="Path 725" d="M58.92,124.139a2.494,2.494,0,1,1-2.495-2.5,2.495,2.495,0,0,1,2.495,2.5" fill="#6ccccf"/>
      <path id="Path_726" data-name="Path 726" d="M85.885,124.139a2.494,2.494,0,1,1-2.5-2.5,2.495,2.495,0,0,1,2.5,2.5" fill="#6ccccf"/>
      <path id="Path_727" data-name="Path 727" d="M112.85,124.139a2.494,2.494,0,1,1-2.495-2.5,2.495,2.495,0,0,1,2.495,2.5" fill="#6ccccf"/>
      <path id="Path_728" data-name="Path 728" d="M139.815,124.139a2.494,2.494,0,1,1-2.495-2.5,2.495,2.495,0,0,1,2.495,2.5" fill="#6ccccf"/>
      <path id="Path_729" data-name="Path 729" d="M166.781,124.139a2.494,2.494,0,1,1-2.5-2.5,2.495,2.495,0,0,1,2.5,2.5" fill="#6ccccf"/>
      <path id="Path_730" data-name="Path 730" d="M4.989,148.468a2.494,2.494,0,1,1-2.495-2.495,2.495,2.495,0,0,1,2.495,2.495" fill="#6ccccf"/>
      <path id="Path_731" data-name="Path 731" d="M31.955,148.468a2.495,2.495,0,1,1-2.5-2.495,2.5,2.5,0,0,1,2.5,2.495" fill="#6ccccf"/>
      <path id="Path_732" data-name="Path 732" d="M58.92,148.468a2.494,2.494,0,1,1-2.495-2.495,2.495,2.495,0,0,1,2.495,2.495" fill="#6ccccf"/>
      <path id="Path_733" data-name="Path 733" d="M85.885,148.468a2.494,2.494,0,1,1-2.5-2.495,2.495,2.495,0,0,1,2.5,2.495" fill="#6ccccf"/>
      <path id="Path_734" data-name="Path 734" d="M112.85,148.468a2.494,2.494,0,1,1-2.495-2.495,2.495,2.495,0,0,1,2.495,2.495" fill="#6ccccf"/>
      <path id="Path_735" data-name="Path 735" d="M139.815,148.468a2.494,2.494,0,1,1-2.495-2.495,2.495,2.495,0,0,1,2.495,2.495" fill="#6ccccf"/>
      <path id="Path_736" data-name="Path 736" d="M166.781,148.468a2.494,2.494,0,1,1-2.5-2.495,2.495,2.495,0,0,1,2.5,2.495" fill="#6ccccf"/>
      <path id="Path_737" data-name="Path 737" d="M4.989,172.8A2.494,2.494,0,1,1,2.494,170.3,2.495,2.495,0,0,1,4.989,172.8" fill="#6ccccf"/>
      <path id="Path_738" data-name="Path 738" d="M31.955,172.8a2.495,2.495,0,1,1-2.5-2.495,2.5,2.5,0,0,1,2.5,2.495" fill="#6ccccf"/>
      <path id="Path_739" data-name="Path 739" d="M58.92,172.8a2.494,2.494,0,1,1-2.495-2.495A2.495,2.495,0,0,1,58.92,172.8" fill="#6ccccf"/>
      <path id="Path_740" data-name="Path 740" d="M85.885,172.8a2.494,2.494,0,1,1-2.5-2.495,2.495,2.495,0,0,1,2.5,2.495" fill="#6ccccf"/>
      <path id="Path_741" data-name="Path 741" d="M112.85,172.8a2.494,2.494,0,1,1-2.495-2.495,2.495,2.495,0,0,1,2.495,2.495" fill="#6ccccf"/>
      <path id="Path_742" data-name="Path 742" d="M139.815,172.8a2.494,2.494,0,1,1-2.495-2.495,2.495,2.495,0,0,1,2.495,2.495" fill="#6ccccf"/>
      <path id="Path_743" data-name="Path 743" d="M166.781,172.8a2.494,2.494,0,1,1-2.5-2.495,2.495,2.495,0,0,1,2.5,2.495" fill="#6ccccf"/>
      <path id="Path_744" data-name="Path 744" d="M4.989,197.126a2.494,2.494,0,1,1-2.495-2.5,2.495,2.495,0,0,1,2.495,2.5" fill="#6ccccf"/>
      <path id="Path_745" data-name="Path 745" d="M31.955,197.126a2.495,2.495,0,1,1-2.5-2.5,2.5,2.5,0,0,1,2.5,2.5" fill="#6ccccf"/>
      <path id="Path_746" data-name="Path 746" d="M58.92,197.126a2.494,2.494,0,1,1-2.495-2.5,2.495,2.495,0,0,1,2.495,2.5" fill="#6ccccf"/>
      <path id="Path_747" data-name="Path 747" d="M85.885,197.126a2.494,2.494,0,1,1-2.5-2.5,2.495,2.495,0,0,1,2.5,2.5" fill="#6ccccf"/>
      <path id="Path_748" data-name="Path 748" d="M112.85,197.126a2.494,2.494,0,1,1-2.495-2.5,2.495,2.495,0,0,1,2.495,2.5" fill="#6ccccf"/>
      <path id="Path_749" data-name="Path 749" d="M139.815,197.126a2.494,2.494,0,1,1-2.495-2.5,2.495,2.495,0,0,1,2.495,2.5" fill="#6ccccf"/>
      <path id="Path_750" data-name="Path 750" d="M166.781,197.126a2.494,2.494,0,1,1-2.5-2.5,2.495,2.495,0,0,1,2.5,2.5" fill="#6ccccf"/>
      <path id="Path_751" data-name="Path 751" d="M4.989,221.455a2.494,2.494,0,1,1-2.495-2.495,2.495,2.495,0,0,1,2.495,2.495" fill="#6ccccf"/>
      <path id="Path_752" data-name="Path 752" d="M31.955,221.455a2.495,2.495,0,1,1-2.5-2.495,2.5,2.5,0,0,1,2.5,2.495" fill="#6ccccf"/>
      <path id="Path_753" data-name="Path 753" d="M58.92,221.455a2.494,2.494,0,1,1-2.495-2.495,2.495,2.495,0,0,1,2.495,2.495" fill="#6ccccf"/>
      <path id="Path_754" data-name="Path 754" d="M85.885,221.455a2.494,2.494,0,1,1-2.5-2.495,2.495,2.495,0,0,1,2.5,2.495" fill="#6ccccf"/>
      <path id="Path_755" data-name="Path 755" d="M112.85,221.455a2.494,2.494,0,1,1-2.495-2.495,2.495,2.495,0,0,1,2.495,2.495" fill="#6ccccf"/>
      <path id="Path_756" data-name="Path 756" d="M139.815,221.455a2.494,2.494,0,1,1-2.495-2.495,2.495,2.495,0,0,1,2.495,2.495" fill="#6ccccf"/>
      <path id="Path_757" data-name="Path 757" d="M166.781,221.455a2.494,2.494,0,1,1-2.5-2.495,2.495,2.495,0,0,1,2.5,2.495" fill="#6ccccf"/>
      <path id="Path_758" data-name="Path 758" d="M4.989,245.783a2.494,2.494,0,1,1-2.495-2.5,2.495,2.495,0,0,1,2.495,2.5" fill="#6ccccf"/>
      <path id="Path_759" data-name="Path 759" d="M31.955,245.783a2.495,2.495,0,1,1-2.5-2.5,2.5,2.5,0,0,1,2.5,2.5" fill="#6ccccf"/>
      <path id="Path_760" data-name="Path 760" d="M58.92,245.783a2.494,2.494,0,1,1-2.495-2.5,2.495,2.495,0,0,1,2.495,2.5" fill="#6ccccf"/>
      <path id="Path_761" data-name="Path 761" d="M85.885,245.783a2.494,2.494,0,1,1-2.5-2.5,2.495,2.495,0,0,1,2.5,2.5" fill="#6ccccf"/>
      <path id="Path_762" data-name="Path 762" d="M112.85,245.783a2.494,2.494,0,1,1-2.495-2.5,2.495,2.495,0,0,1,2.495,2.5" fill="#6ccccf"/>
      <path id="Path_763" data-name="Path 763" d="M139.815,245.783a2.494,2.494,0,1,1-2.495-2.5,2.495,2.495,0,0,1,2.495,2.5" fill="#6ccccf"/>
      <path id="Path_764" data-name="Path 764" d="M166.781,245.783a2.494,2.494,0,1,1-2.5-2.5,2.495,2.495,0,0,1,2.5,2.5" fill="#6ccccf"/>
      <path id="Path_765" data-name="Path 765" d="M4.989,270.112a2.494,2.494,0,1,1-2.495-2.495,2.495,2.495,0,0,1,2.495,2.495" fill="#6ccccf"/>
      <path id="Path_766" data-name="Path 766" d="M31.955,270.112a2.495,2.495,0,1,1-2.5-2.495,2.5,2.5,0,0,1,2.5,2.495" fill="#6ccccf"/>
      <path id="Path_767" data-name="Path 767" d="M58.92,270.112a2.494,2.494,0,1,1-2.495-2.495,2.495,2.495,0,0,1,2.495,2.495" fill="#6ccccf"/>
      <path id="Path_768" data-name="Path 768" d="M85.885,270.112a2.494,2.494,0,1,1-2.5-2.495,2.495,2.495,0,0,1,2.5,2.495" fill="#6ccccf"/>
      <path id="Path_769" data-name="Path 769" d="M112.85,270.112a2.494,2.494,0,1,1-2.495-2.495,2.495,2.495,0,0,1,2.495,2.495" fill="#6ccccf"/>
      <path id="Path_770" data-name="Path 770" d="M139.815,270.112a2.494,2.494,0,1,1-2.495-2.495,2.495,2.495,0,0,1,2.495,2.495" fill="#6ccccf"/>
      <path id="Path_771" data-name="Path 771" d="M166.781,270.112a2.494,2.494,0,1,1-2.5-2.495,2.495,2.495,0,0,1,2.5,2.495" fill="#6ccccf"/>
    </g>
  </g>
</svg>
