<svg xmlns="http://www.w3.org/2000/svg" width="52" height="52" viewBox="0 0 52 52">
  <g id="ic-book" transform="translate(-1047 -1090)">
    <g id="auto_stories_black_24dp" transform="translate(1048 1091)">
      <path id="Path_637" data-name="Path 637" d="M0,0H50V50H0Z" fill="none"/>
      <path id="Path_638" data-name="Path 638" d="M38.5,1,28.083,11.417V34.333L38.5,24.958ZM1,11.417V41.938a1.12,1.12,0,0,0,1.042,1.042c.208,0,.313-.1.521-.1a25.428,25.428,0,0,1,9.9-2.292c4.062,0,8.437.833,11.458,3.125V11.417c-3.021-2.292-7.4-3.125-11.458-3.125S4.021,9.125,1,11.417ZM46.833,39.542V11.417a14.21,14.21,0,0,0-4.167-2.083V37.458a24.209,24.209,0,0,0-7.292-1.042,25.094,25.094,0,0,0-11.458,3.125v4.167a25.094,25.094,0,0,1,11.458-3.125,21.2,21.2,0,0,1,9.9,2.188.939.939,0,0,0,.521.1,1.12,1.12,0,0,0,1.042-1.042V39.542Z" transform="translate(1.083 1.083)" fill="#c4c4c4"/>
    </g>
    <rect id="Rectangle_360" data-name="Rectangle 360" width="52" height="52" transform="translate(1047 1090)" fill="none"/>
  </g>
</svg>
