<svg xmlns="http://www.w3.org/2000/svg" width="52" height="52" viewBox="0 0 52 52">
  <g id="ic-course" transform="translate(-307 -915)">
    <g id="セミナー風景のアイコン" transform="translate(309 920)">
      <path id="Path_639" data-name="Path 639" d="M43.442,40.983a4.017,4.017,0,1,0-4.018-4.017A4.017,4.017,0,0,0,43.442,40.983Z" transform="translate(-35.654 -32.948)" fill="#6ccccf"/>
      <path id="Path_640" data-name="Path 640" d="M21.435,147.216a1.8,1.8,0,0,0-.024-.239l6-4.355a.846.846,0,1,0-.994-1.37L20.4,145.616a1.754,1.754,0,0,0-.732-.163H16.405l-.793-4.515c-.436-2.277-1.349-4.065-3.3-4.065H4.064A4.516,4.516,0,0,0,0,140.938v13.5A1.762,1.762,0,0,0,1.762,156.2h1.23l.67,11.515a1.876,1.876,0,0,0,1.876,1.875H9.289a1.875,1.875,0,0,0,1.875-1.875l.88-22.809h.044l.5,2.225a2.181,2.181,0,0,0,2.154,1.844h4.928A1.761,1.761,0,0,0,21.435,147.216Zm-14.93-2.5v-6.418H8.812v6.418l-1.226,1.446Z" transform="translate(0 -126.936)" fill="#6ccccf"/>
      <path id="Path_641" data-name="Path 641" d="M190.326,47.47V62.138h2.307V49.777h26.145V71.821H192.633V69.046h-2.307v5.082h30.759V47.47Z" transform="translate(-172.127 -46.081)" fill="#6ccccf"/>
    </g>
    <rect id="Rectangle_353" data-name="Rectangle 353" width="52" height="52" transform="translate(307 915)" fill="none"/>
  </g>
</svg>
