<svg xmlns="http://www.w3.org/2000/svg" width="52" height="52" viewBox="0 0 52 52">
  <g id="ic-international" transform="translate(-804 -1091)">
    <g id="public_black_24dp" transform="translate(804 1091)">
      <path id="Path_647" data-name="Path 647" d="M0,0H51.356V51.356H0Z" fill="none"/>
      <path id="Path_648" data-name="Path 648" d="M23.4,2A21.4,21.4,0,1,0,44.8,23.4,21.406,21.406,0,0,0,23.4,2Zm-2.14,38.368A17.094,17.094,0,0,1,6.28,23.4a17.371,17.371,0,0,1,.449-3.83l10.25,10.25v2.14a4.292,4.292,0,0,0,4.28,4.28Zm14.765-5.435a4.245,4.245,0,0,0-4.066-2.974h-2.14v-6.42a2.146,2.146,0,0,0-2.14-2.14H14.839v-4.28h4.28a2.146,2.146,0,0,0,2.14-2.14V12.7h4.28a4.292,4.292,0,0,0,4.28-4.28V7.542a17.081,17.081,0,0,1,6.206,27.39Z" transform="translate(2.28 2.28)" fill="#f69d9d"/>
    </g>
    <rect id="Rectangle_359" data-name="Rectangle 359" width="52" height="52" transform="translate(804 1091)" fill="none"/>
  </g>
</svg>
