<svg xmlns="http://www.w3.org/2000/svg" xmlns:xlink="http://www.w3.org/1999/xlink" width="46" height="46" viewBox="0 0 46 46">
  <defs>
    <clipPath id="clip-path">
      <rect id="Rectangle_297" data-name="Rectangle 297" width="31.316" height="29.953" fill="#014099"/>
    </clipPath>
  </defs>
  <g id="ic-line" transform="translate(-711 -1221)">
    <circle id="Ellipse_137" data-name="Ellipse 137" cx="23" cy="23" r="23" transform="translate(711 1221)" fill="#6dec3f"/>
    <g id="Group_18" data-name="Group 18" transform="translate(718.342 1230.024)">
      <g id="Group_17" data-name="Group 17" transform="translate(0 0)" clip-path="url(#clip-path)">
        <path id="Path_679" data-name="Path 679" d="M31.316,12.922a11.907,11.907,0,0,0-4.678-9.21A17.445,17.445,0,0,0,15.658,0,17.442,17.442,0,0,0,4.678,3.712,11.907,11.907,0,0,0,0,12.922a11.687,11.687,0,0,0,3.8,8.469,16.628,16.628,0,0,0,9.241,4.267,2.865,2.865,0,0,1,.466.134l.028.013,0,.086a14.2,14.2,0,0,1-.248,1.77v0a3.429,3.429,0,0,0-.065.617,2.049,2.049,0,0,0,.049.457,1.568,1.568,0,0,0,.517.858,1.546,1.546,0,0,0,.521.283,1.76,1.76,0,0,0,.539.08,3.217,3.217,0,0,0,1.227-.291h0c.257-.109.553-.259.914-.456a54.911,54.911,0,0,0,5.32-3.43,35.03,35.03,0,0,0,5.589-4.838h0l.009-.01.006-.007h0a13.859,13.859,0,0,0,2.53-3.818,10.477,10.477,0,0,0,.857-4.18m-2.912,3.3a11.626,11.626,0,0,1-2.145,3.214l-.007.009-.009.009a35.751,35.751,0,0,1-6.075,5.113c-1.12.781-2.2,1.475-3.079,2.009-.441.266-.834.494-1.156.669-.123.067-.226.12-.326.172a9.829,9.829,0,0,0,.174-1.524,2.742,2.742,0,0,0-.123-.848,2.035,2.035,0,0,0-.346-.64,2.289,2.289,0,0,0-.84-.631,4.675,4.675,0,0,0-.961-.3l-.048-.011-.039,0a14.429,14.429,0,0,1-8.077-3.683,9.448,9.448,0,0,1-3.112-6.851A9.672,9.672,0,0,1,6.087,5.447a15.223,15.223,0,0,1,9.571-3.211,15.223,15.223,0,0,1,9.571,3.211,9.672,9.672,0,0,1,3.851,7.475,8.242,8.242,0,0,1-.677,3.3" transform="translate(0 0.001)" fill="#014099"/>
        <path id="Path_680" data-name="Path 680" d="M17.4,8.1h-.978a.271.271,0,0,0-.275.275v3.622l-2.8-3.777a.259.259,0,0,0-.223-.12h-.97a.271.271,0,0,0-.276.275v6.1a.271.271,0,0,0,.276.275h.978a.271.271,0,0,0,.275-.275V10.854l2.8,3.777a.284.284,0,0,0,.223.112H17.4a.271.271,0,0,0,.275-.275v-6.1A.271.271,0,0,0,17.4,8.1" transform="translate(2.681 1.829)" fill="#014099"/>
        <path id="Path_681" data-name="Path 681" d="M11.1,8.091h-.978a.271.271,0,0,0-.275.275v6.1a.271.271,0,0,0,.275.275H11.1a.271.271,0,0,0,.275-.275v-6.1a.276.276,0,0,0-.275-.275" transform="translate(2.223 1.827)" fill="#014099"/>
        <path id="Path_682" data-name="Path 682" d="M9.715,13.206H7.045V8.366a.271.271,0,0,0-.275-.275H5.793a.271.271,0,0,0-.275.275v6.1a.25.25,0,0,0,.077.188.283.283,0,0,0,.189.077H9.706a.271.271,0,0,0,.275-.275v-.978a.275.275,0,0,0-.266-.275" transform="translate(1.246 1.827)" fill="#014099"/>
        <path id="Path_683" data-name="Path 683" d="M21.584,8.091H17.662a.276.276,0,0,0-.275.275v6.1a.276.276,0,0,0,.275.275h3.922a.271.271,0,0,0,.275-.275V13.49a.271.271,0,0,0-.275-.276h-2.67v-1.03h2.67a.271.271,0,0,0,.275-.275v-.987a.271.271,0,0,0-.275-.275h-2.67V9.618h2.67a.271.271,0,0,0,.275-.275V8.366a.289.289,0,0,0-.275-.275" transform="translate(3.925 1.827)" fill="#014099"/>
      </g>
    </g>
  </g>
</svg>
