<svg xmlns="http://www.w3.org/2000/svg" width="52" height="38.949" viewBox="0 0 52 38.949">
  <g id="ic-menu" transform="translate(0 -4.016)">
    <path id="Path_827" data-name="Path 827" d="M3.161,10.337H48.84a3.161,3.161,0,0,0,0-6.322H3.161a3.161,3.161,0,1,0,0,6.322Z" transform="translate(0)" fill="#014099"/>
    <path id="Path_828" data-name="Path 828" d="M48.84,14.055H3.161a3.161,3.161,0,1,0,0,6.322H48.84a3.161,3.161,0,0,0,0-6.322Z" transform="translate(0 6.274)" fill="#014099"/>
    <path id="Path_829" data-name="Path 829" d="M48.84,24.094H3.161a3.161,3.161,0,1,0,0,6.322H48.84a3.161,3.161,0,0,0,0-6.322Z" transform="translate(0 12.549)" fill="#014099"/>
  </g>
</svg>
