<svg id="ic-qa" xmlns="http://www.w3.org/2000/svg" width="20" height="20" viewBox="0 0 20 20">
  <path id="Path_668" data-name="Path 668" d="M0,0H20V20H0Z" fill="none"/>
  <path id="Path_669" data-name="Path 669" d="M10.375,2A7.306,7.306,0,0,0,3,9.225a7.306,7.306,0,0,0,7.375,7.225h.434V19c4.217-1.989,6.941-5.95,6.941-9.775A7.306,7.306,0,0,0,10.375,2Zm.868,12.325H9.507v-1.7h1.735Zm0-2.975H9.507c0-2.762,2.6-2.55,2.6-4.25a1.736,1.736,0,0,0-3.471,0H6.9a3.471,3.471,0,0,1,6.941,0C13.846,9.225,11.243,9.438,11.243,11.35Z" transform="translate(-0.75 -0.5)" fill="#fff"/>
</svg>
