<svg id="logo" xmlns="http://www.w3.org/2000/svg" xmlns:xlink="http://www.w3.org/1999/xlink" width="118.97" height="69.303" viewBox="0 0 118.97 69.303">
  <defs>
    <clipPath id="clip-path">
      <rect id="Rectangle_353" data-name="Rectangle 353" width="118.97" height="69.303" fill="#014099"/>
    </clipPath>
  </defs>
  <g id="Group_78" data-name="Group 78" clip-path="url(#clip-path)">
    <path id="Path_818" data-name="Path 818" d="M77.962,0q-.94,4.361-1.879,8.722-.951,4.433-1.9,8.867c-.027.125-.072.247-.123.419-.861-.282-1.708-.554-2.551-.837-1.71-.573-3.421-1.146-5.126-1.732a4.244,4.244,0,0,0-2.214.108c-3.694.668-7.4,1.276-11.07,2.059a88.518,88.518,0,0,0-18.638,5.951,37.271,37.271,0,0,0-11.011,7.318,19.56,19.56,0,0,0-5.619,10.3,20.069,20.069,0,0,0,.987,10.993A28.005,28.005,0,0,0,33.8,68.184a1.131,1.131,0,0,1,.454.312c-.8-.144-1.608-.276-2.408-.436a59.974,59.974,0,0,1-13.9-4.463A36.925,36.925,0,0,1,7.614,56.577a24.515,24.515,0,0,1-7.281-14C.186,41.628.109,40.671,0,39.72V37.274c.034-.207.078-.413.1-.622.1-.954.162-1.914.3-2.861A25.443,25.443,0,0,1,6.6,20.485a33.668,33.668,0,0,1,10.348-7.733,68.9,68.9,0,0,1,20.18-6.079L38.808,6.4q0-.067,0-.134L30.283,3.409a2.634,2.634,0,0,1,.824-.157c1.169-.078,2.339-.151,3.509-.232q3.264-.225,6.527-.456c2.079-.143,4.158-.281,6.237-.425,2.16-.149,4.319-.306,6.479-.455,2.095-.144,4.19-.28,6.285-.425,2.582-.179,5.163-.371,7.745-.547C70.5.535,73.119.373,75.733.193,76.347.151,76.959.066,77.571,0Z" fill="#014099"/>
    <path id="Path_819" data-name="Path 819" d="M460.609,71.826l7.928,2.677q0,.067,0,.134l-46.9,3.511,3.349-18.281c.261.073.49.127.712.2,2.113.707,4.228,1.408,6.335,2.132a10.74,10.74,0,0,0,3.92.3c6.211-.2,12.124-1.876,18.006-3.692a72.24,72.24,0,0,0,14.926-6.214,31.676,31.676,0,0,0,9.474-7.9,18.807,18.807,0,0,0,3.974-9.823,19.9,19.9,0,0,0-4.046-14.12,35.633,35.633,0,0,0-9.916-8.888c-1.067-.679-2.168-1.3-3.228-2.056,1.853.372,3.716.7,5.557,1.124a50.483,50.483,0,0,1,14.591,5.658,29.729,29.729,0,0,1,10.507,9.95,23.394,23.394,0,0,1,3.341,9.6,28.126,28.126,0,0,1-2.484,15.79,27.028,27.028,0,0,1-8.2,9.812,45.7,45.7,0,0,1-14.615,7.147,77.4,77.4,0,0,1-11.756,2.562c-.465.066-.926.16-1.388.246-.021,0-.034.05-.088.132" transform="translate(-380.392 -8.845)" fill="#014099"/>
    <path id="Path_820" data-name="Path 820" d="M568.768,299.066c-.022-.409.19-.556.563-.562a2.017,2.017,0,0,0,2.089-1.624c.943-3.314,1.922-6.618,2.85-9.937.322-1.15.05-1.489-1.142-1.678l-.375-.06c-.037-.5.267-.548.623-.548,1.76,0,3.521-.031,5.28.01a28.39,28.39,0,0,1,4.227.262,4.683,4.683,0,0,1,3.981,3.789,7.793,7.793,0,0,1-1.371,5.79,9.753,9.753,0,0,1-7.863,4.534c-2.941.118-5.891.025-8.861.025m7.5-.637a5.475,5.475,0,0,0,4.352-1.848,10.63,10.63,0,0,0,2.025-3.645,12.822,12.822,0,0,0,.948-4.75,2.575,2.575,0,0,0-2.247-2.651,10.811,10.811,0,0,0-1.354-.166c-1.348-.077-1.848.294-2.223,1.6-.607,2.106-1.228,4.209-1.823,6.319-.4,1.405-.763,2.819-1.13,4.233a.583.583,0,0,0,.547.8c.352.056.708.092.905.116" transform="translate(-513.132 -256.802)" fill="#014099"/>
    <path id="Path_821" data-name="Path 821" d="M319.614,299.212c-.012-.432.194-.585.59-.606a1.886,1.886,0,0,0,2.024-1.556q1.479-5,2.9-10.015c.31-1.092-.031-1.531-1.173-1.669l-.34-.039c-.076-.373.084-.534.424-.555.081,0,.163-.008.244-.008,2.8.016,5.6-.024,8.4.08a8.611,8.611,0,0,1,2.864.687,2.37,2.37,0,0,1,1.384,3.14,5.019,5.019,0,0,1-4.18,3.512,27.07,27.07,0,0,1-3.386.358,17,17,0,0,1-1.807.005.6.6,0,0,0-.679.524c-.358,1.351-.752,2.692-1.121,4.04-.248.908.114,1.412,1.052,1.5a3.3,3.3,0,0,1,.338.043.953.953,0,0,1,.18.076c-.039.307-.108.522-.5.52-2.329-.014-4.659-.007-6.989-.008a2.015,2.015,0,0,1-.237-.028m7.619-7.317c1.022-.062,1.931-.078,2.829-.182a3.307,3.307,0,0,0,2.128-1.084,4.908,4.908,0,0,0,1.256-3.1A1.653,1.653,0,0,0,332,285.646a8.923,8.923,0,0,0-1.743-.127,1.488,1.488,0,0,0-1.5,1.108c-.182.538-.337,1.085-.493,1.63-.335,1.166-.664,2.334-1.034,3.639" transform="translate(-288.35 -256.909)" fill="#014099"/>
    <path id="Path_822" data-name="Path 822" d="M777.8,291.886l.378.331a10.754,10.754,0,0,1-6.045,3.8,7.324,7.324,0,0,1-4.221-.33,4.75,4.75,0,0,1-2.942-4.833,9.7,9.7,0,0,1,2.333-5.68,10.647,10.647,0,0,1,6.065-4.019,5.941,5.941,0,0,1,3.464.156,3.474,3.474,0,0,0,2.88-.089,3.237,3.237,0,0,1,.382-.126c.012.2.031.37.031.538,0,.978,0,1.955,0,2.933,0,.886,0,.886-.923,1.046-.2-.523-.378-1.064-.617-1.576a3.847,3.847,0,0,0-4.173-2.291,4.511,4.511,0,0,0-2.827,1.7,11.475,11.475,0,0,0-2.716,7.99,3.47,3.47,0,0,0,4.2,3.221,6.66,6.66,0,0,0,3.065-1.417c.545-.437,1.083-.883,1.663-1.356" transform="translate(-690.138 -253.489)" fill="#014099"/>
    <path id="Path_823" data-name="Path 823" d="M478.991,299.387c-.042-.431.158-.6.564-.61a1.944,1.944,0,0,0,2.018-1.507c.767-2.654,1.551-5.3,2.324-7.956.209-.718.419-1.436.6-2.161.261-1.049-.057-1.487-1.137-1.612-.128-.015-.256-.024-.406-.038-.01-.3.034-.547.388-.548,2.425,0,4.85,0,7.3,0,.024.408-.125.565-.521.59a1.988,1.988,0,0,0-2.108,1.611q-1.479,5.1-2.9,10.221c-.228.818.127,1.28.961,1.393a1.521,1.521,0,0,1,.339.028c.1.041.251.134.258.215a.4.4,0,0,1-.175.31.853.853,0,0,1-.421.088q-3.447.007-6.893,0a1.557,1.557,0,0,1-.19-.023" transform="translate(-432.133 -257.079)" fill="#014099"/>
  </g>
</svg>
